<svg width="691" height="691" viewBox="0 0 691 691" fill="none" xmlns="http://www.w3.org/2000/svg">
<path d="M643.079 369.919C649.072 328.211 644.077 284.869 628.224 241.883C600.5 166.713 544.165 99.059 470.9 64.9139C441.45 51.1879 409.348 43.2497 376.804 42.8558C318.688 42.1538 269.713 66.7948 228.88 106.274C196.961 137.134 167.049 171.667 127.827 193.599C90.6952 214.362 56.955 242.898 46.9936 286.863C38.1764 325.775 54.303 366.078 80.6688 394.799C97.8705 413.537 120.58 426.131 137.943 444.676C161.205 469.522 158.225 492.162 160.161 524.036C164.211 590.656 222.769 636.591 283.36 652.343C358.894 671.98 429.653 643.806 486.362 593.399C523.001 560.831 560.666 528.31 590.947 489.518C619.676 452.713 637.011 412.155 643.079 369.919Z" fill="#92E3A9"/>
<path opacity="0.7" d="M643.079 369.919C649.072 328.211 644.077 284.869 628.224 241.883C600.5 166.713 544.165 99.059 470.9 64.9139C441.45 51.1879 409.348 43.2497 376.804 42.8558C318.688 42.1538 269.713 66.7948 228.88 106.274C196.961 137.134 167.049 171.667 127.827 193.599C90.6952 214.362 56.955 242.898 46.9936 286.863C38.1764 325.775 54.303 366.078 80.6688 394.799C97.8705 413.537 120.58 426.131 137.943 444.677C161.205 469.522 158.225 492.162 160.161 524.037C164.211 590.656 222.769 636.591 283.36 652.343C358.894 671.98 429.653 643.806 486.362 593.399C523.001 560.831 560.666 528.31 590.947 489.518C619.676 452.713 637.011 412.155 643.079 369.919Z" fill="#D9DBFF"/>
<path d="M539.576 657.216L633.116 467.355H446.036L539.576 657.216Z" fill="white" stroke="#263238" stroke-miterlimit="10" stroke-linecap="round" stroke-linejoin="round"/>
<path d="M539.576 657.216L515.424 467.355H633.116L539.576 657.216Z" fill="#263238" stroke="#263238" stroke-miterlimit="10" stroke-linecap="round" stroke-linejoin="round"/>
<path d="M539.576 467.184C582.926 467.184 618.069 432.041 618.069 388.69C618.069 345.34 582.926 310.197 539.576 310.197C496.225 310.197 461.082 345.34 461.082 388.69C461.082 432.041 496.225 467.184 539.576 467.184Z" fill="white" stroke="#263238" stroke-miterlimit="10" stroke-linecap="round" stroke-linejoin="round"/>
<path d="M609.629 383.555C608.439 367.087 601.571 352.192 590.974 340.819L609.629 383.555Z" fill="white"/>
<path d="M609.629 383.555C608.439 367.087 601.571 352.192 590.974 340.819" stroke="#263238" stroke-miterlimit="10" stroke-linecap="round" stroke-linejoin="round"/>
<path d="M580.387 331.518C575.241 327.838 569.575 324.835 563.523 322.639L580.387 331.518Z" fill="white"/>
<path d="M580.387 331.518C575.241 327.838 569.575 324.835 563.523 322.639" stroke="#263238" stroke-miterlimit="10" stroke-linecap="round" stroke-linejoin="round"/>
<path d="M605.247 345.71C608.235 354.013 609.872 362.96 609.872 372.293C609.872 415.643 574.73 450.788 531.379 450.788C503.898 450.788 479.732 436.655 465.709 415.273C476.603 445.539 505.559 467.184 539.577 467.184C582.928 467.184 618.072 432.041 618.072 388.69C618.07 372.819 613.345 358.06 605.247 345.71Z" fill="#263238" stroke="#263238" stroke-miterlimit="10" stroke-linecap="round" stroke-linejoin="round"/>
<path d="M405.377 556.634C408.523 558.007 416.218 557.835 416.224 557.835C416.304 557.833 414.57 552.797 414.424 552.492C412.737 548.959 407.397 543.127 403.052 543.715C399.922 544.138 398.182 547.271 398.888 550.217C399.611 553.227 402.697 555.462 405.377 556.634Z" fill="#A3A3A3"/>
<path d="M408.033 578.923C411.297 579.398 418.164 577.406 418.71 577.246C419.795 581.091 421.218 584.948 422.875 588.771C423.819 590.958 424.839 593.131 425.89 595.298C425.263 594.38 424.697 593.565 424.606 593.458C422.043 590.498 415.353 586.283 411.319 587.997C408.411 589.231 407.56 592.711 409.019 595.367C410.509 598.078 414.079 599.42 416.971 599.842C419.908 600.27 425.797 598.689 427.35 598.25C427.762 599.076 428.163 599.907 428.578 600.732C430.566 604.693 432.567 608.634 434.412 612.562C435.063 613.945 435.653 615.333 436.249 616.717C435.692 615.902 435.215 615.222 435.132 615.124C432.571 612.164 425.881 607.949 421.846 609.662C418.938 610.896 418.087 614.378 419.546 617.033C421.037 619.744 424.606 621.086 427.5 621.508C430.301 621.917 435.75 620.506 437.598 619.993C438.164 621.43 438.735 622.869 439.22 624.287C439.53 625.262 439.896 626.18 440.15 627.178C440.425 628.16 440.696 629.132 440.964 630.095C441.414 631.968 441.889 633.899 442.281 635.737C442.563 637.014 442.809 638.235 443.061 639.465C442.429 638.08 441.136 635.395 441.002 635.182C438.919 631.868 432.945 626.689 428.696 627.771C425.635 628.552 424.267 631.861 425.308 634.708C426.37 637.615 429.694 639.482 432.49 640.336C435.569 641.277 442.385 640.417 443.236 640.304C443.644 642.341 444.023 644.326 444.349 646.204C445.08 650.35 445.631 654.066 446.05 657.211H448.923C448.422 653.957 447.768 650.08 446.901 645.727C446.495 643.657 446.02 641.454 445.51 639.196C446.022 638.993 448.929 637.817 451.505 636.376C453.749 638.806 459.498 641.65 460.243 642.012C459.461 643.936 458.682 645.8 457.917 647.547C456.328 651.207 454.818 654.452 453.484 657.211H456.592C457.738 654.667 458.998 651.769 460.311 648.557C461.114 646.607 461.933 644.505 462.753 642.343C463.578 642.515 470.325 643.885 473.47 643.176C476.321 642.532 479.776 640.918 481.053 638.098C482.304 635.339 481.185 631.933 478.19 630.929C474.036 629.533 467.691 634.252 465.368 637.403C465.23 637.588 463.968 639.772 463.194 641.161C463.524 640.275 463.854 639.418 464.185 638.502C464.849 636.694 465.458 634.87 466.118 632.91C466.404 631.953 466.694 630.985 466.987 630.008C467.297 629.045 467.503 627.989 467.768 626.972C468.333 624.599 468.791 622.167 469.197 619.707C470.782 620.283 476.438 622.251 479.367 622.045C482.285 621.841 485.943 620.77 487.632 618.175C489.286 615.637 488.696 612.102 485.889 610.653C481.992 608.644 475.007 612.349 472.232 615.11C472.059 615.282 470.29 617.487 469.344 618.717C469.576 617.236 469.815 615.76 470.003 614.253C470.543 609.907 470.952 605.49 471.384 601.086C471.514 599.737 471.661 598.394 471.802 597.049C472.365 597.26 479.036 599.745 482.318 599.514C485.235 599.31 488.894 598.239 490.582 595.645C492.237 593.106 491.646 589.571 488.838 588.124C484.942 586.114 477.956 589.818 475.183 592.579C474.974 592.788 472.434 595.964 471.827 596.804C472.141 593.843 472.48 590.895 472.931 588.001C473.549 584.01 474.378 580.126 475.458 576.424C475.719 576.523 482.672 579.146 486.033 578.912C488.95 578.707 492.61 577.635 494.297 575.042C495.951 572.503 495.361 568.968 492.553 567.52C488.656 565.51 481.673 569.215 478.896 571.977C478.679 572.194 475.948 575.613 475.496 576.268C475.561 576.048 475.604 575.813 475.672 575.593C476.876 571.655 478.535 567.991 480.259 564.638C481.255 562.687 482.318 560.878 483.39 559.142C484.636 559.764 490.356 562.54 493.404 562.663C496.326 562.779 500.081 562.117 502.043 559.724C503.966 557.381 503.768 553.803 501.137 552.056C497.484 549.631 490.135 552.546 487.073 554.986C486.908 555.119 485.364 556.656 484.257 557.79C484.753 557.014 485.251 556.204 485.741 555.469C487.575 552.706 489.424 550.29 491.08 548.163C492.031 546.962 492.914 545.894 493.753 544.905C495.292 544.878 501.495 544.689 504.207 543.416C506.854 542.172 509.881 539.855 510.52 536.827C511.146 533.861 509.322 530.778 506.182 530.439C501.824 529.969 496.644 535.942 495.05 539.519C494.914 539.829 493.316 544.909 493.396 544.909C493.396 544.909 493.471 544.909 493.489 544.907C492.662 545.844 491.79 546.857 490.857 547.985C489.152 550.08 487.245 552.463 485.345 555.195C483.437 557.922 481.442 560.937 479.627 564.302C477.803 567.674 476.058 571.313 474.743 575.296C474.728 575.34 474.718 575.39 474.703 575.436C474.727 574.152 474.67 570.559 474.633 570.284C474.13 566.402 470.876 559.194 466.565 558.397C463.459 557.824 460.828 560.256 460.58 563.277C460.329 566.362 462.564 569.449 464.746 571.398C467.204 573.595 474.032 575.722 474.576 575.89C473.358 579.694 472.42 583.697 471.692 587.799C471.273 590.146 470.925 592.52 470.606 594.907C470.589 593.796 470.567 592.802 470.547 592.664C470.044 588.78 466.79 581.576 462.479 580.779C459.374 580.204 456.743 582.639 456.497 585.658C456.244 588.743 458.48 591.83 460.661 593.778C462.875 595.754 468.657 597.686 470.195 598.175C470.082 599.091 469.959 600.006 469.85 600.924C469.323 605.323 468.819 609.716 468.19 614.01C467.97 615.523 467.696 617.005 467.428 618.489C467.413 617.502 467.391 616.672 467.376 616.546C466.873 612.663 463.618 605.457 459.308 604.661C456.201 604.087 453.571 606.52 453.322 609.541C453.069 612.624 455.307 615.713 457.488 617.66C459.598 619.546 464.921 621.376 466.746 621.968C466.426 623.48 466.109 624.993 465.73 626.444C465.449 627.428 465.247 628.395 464.91 629.368C464.597 630.338 464.287 631.299 463.98 632.25C463.321 634.06 462.653 635.931 461.967 637.681C461.498 638.901 461.028 640.057 460.56 641.22C460.796 639.717 461.2 636.763 461.205 636.513C461.265 633.912 460.341 629.685 458.503 626.714C458.514 626.329 458.492 625.947 458.431 625.566C457.951 622.574 455.14 620.352 452.087 621.165C447.851 622.292 445.163 629.729 444.963 633.639C444.95 633.869 445.102 636.386 445.222 637.973C445.008 637.051 444.812 636.154 444.581 635.209C444.136 633.335 443.639 631.479 443.109 629.478C442.82 628.521 442.527 627.555 442.232 626.578C441.959 625.605 441.549 624.61 441.208 623.615C440.37 621.324 439.41 619.043 438.391 616.767C440.032 616.375 445.835 614.895 448.165 613.106C450.485 611.326 452.945 608.414 452.923 605.32C452.901 602.289 450.46 599.666 447.32 600.008C442.961 600.48 439.179 607.425 438.387 611.259C438.337 611.498 438.08 614.313 437.967 615.862C437.344 614.499 436.729 613.134 436.054 611.775C434.107 607.852 432.013 603.941 429.942 600.031C429.306 598.833 428.688 597.633 428.063 596.434C428.649 596.3 435.584 594.69 438.195 592.689C440.514 590.909 442.975 587.997 442.953 584.901C442.931 581.872 440.49 579.249 437.35 579.59C432.992 580.063 429.209 587.006 428.419 590.841C428.359 591.13 427.994 595.18 427.951 596.216C426.579 593.573 425.236 590.927 424.017 588.265C422.331 584.594 420.878 580.899 419.738 577.214C420.012 577.152 427.258 575.505 429.93 573.454C432.251 571.674 434.711 568.762 434.689 565.666C434.668 562.636 432.226 560.014 429.085 560.355C424.726 560.828 420.943 567.773 420.153 571.606C420.091 571.908 419.7 576.266 419.686 577.061C419.618 576.843 419.524 576.623 419.459 576.403C418.291 572.453 417.654 568.482 417.241 564.734C416.996 562.557 416.884 560.462 416.822 558.422C418.203 558.253 424.506 557.415 427.115 555.835C429.617 554.32 432.382 551.696 432.7 548.618C433.011 545.604 430.872 542.728 427.714 542.722C423.33 542.714 418.807 549.2 417.6 552.924C417.534 553.128 417.094 555.26 416.797 556.817C416.784 555.896 416.75 554.945 416.754 554.063C416.761 550.748 416.97 547.711 417.177 545.026C417.307 543.499 417.457 542.121 417.609 540.833C418.877 539.96 423.948 536.382 425.507 533.824C427.028 531.326 428.273 527.724 427.137 524.845C426.025 522.026 422.802 520.461 419.997 521.91C416.102 523.923 415.077 531.763 415.721 535.624C415.777 535.958 417.248 541.076 417.314 541.032C417.314 541.032 417.376 540.989 417.39 540.98C417.219 542.215 417.05 543.543 416.894 544.999C416.627 547.687 416.351 550.726 416.272 554.053C416.185 557.379 416.185 560.995 416.528 564.804C416.868 568.621 417.418 572.621 418.519 576.667C418.532 576.713 418.551 576.76 418.564 576.804C417.874 575.72 415.844 572.756 415.661 572.546C413.101 569.586 406.41 565.371 402.375 567.083C399.468 568.318 398.616 571.798 400.077 574.455C401.572 577.161 405.14 578.501 408.033 578.923Z" fill="#A3A3A3"/>
<path d="M483.212 558.327C483.28 558.369 484.612 553.212 484.659 552.877C485.198 549.001 483.963 541.191 480.014 539.283C477.172 537.909 473.992 539.562 472.955 542.41C471.896 545.318 473.238 548.886 474.828 551.341C476.693 554.222 483.207 558.322 483.212 558.327Z" fill="#A3A3A3"/>
<path d="M231.137 589.272C233.262 590.201 238.46 590.084 238.464 590.084C238.518 590.082 237.346 586.681 237.248 586.474C236.108 584.087 232.501 580.148 229.565 580.545C227.451 580.831 226.275 582.947 226.753 584.937C227.241 586.97 229.326 588.48 231.137 589.272Z" fill="#A3A3A3"/>
<path d="M232.931 604.329C235.135 604.65 239.774 603.305 240.143 603.196C240.876 605.793 241.838 608.398 242.957 610.981C243.595 612.458 244.284 613.926 244.993 615.389C244.57 614.769 244.187 614.219 244.125 614.147C242.394 612.147 237.875 609.3 235.15 610.457C233.186 611.29 232.611 613.641 233.597 615.436C234.603 617.269 237.014 618.176 238.969 618.459C240.952 618.749 244.929 617.681 245.979 617.384C246.257 617.942 246.528 618.503 246.809 619.06C248.152 621.734 249.504 624.399 250.75 627.051C251.19 627.985 251.588 628.922 251.991 629.858C251.615 629.307 251.293 628.847 251.237 628.781C249.506 626.781 244.987 623.934 242.262 625.092C240.298 625.926 239.723 628.278 240.708 630.072C241.716 631.904 244.126 632.809 246.082 633.094C247.975 633.371 251.655 632.417 252.903 632.071C253.286 633.042 253.672 634.015 253.999 634.972C254.208 635.632 254.455 636.252 254.627 636.925C254.812 637.588 254.996 638.245 255.177 638.896C255.481 640.16 255.801 641.465 256.067 642.706C256.257 643.568 256.423 644.393 256.593 645.224C256.166 644.288 255.293 642.474 255.201 642.331C253.795 640.093 249.759 636.595 246.889 637.326C244.821 637.852 243.897 640.09 244.6 642.012C245.317 643.976 247.563 645.236 249.452 645.814C251.532 646.45 256.137 645.869 256.712 645.792C256.988 647.167 257.243 648.509 257.464 649.778C257.957 652.578 258.33 655.089 258.614 657.213H260.555C260.217 655.014 259.775 652.395 259.19 649.454C258.915 648.056 258.594 646.569 258.25 645.043C258.596 644.906 260.56 644.112 262.301 643.139C263.817 644.78 267.7 646.701 268.203 646.946C267.675 648.246 267.148 649.505 266.632 650.686C265.558 653.158 264.538 655.35 263.637 657.214H265.736C266.51 655.495 267.362 653.538 268.249 651.368C268.792 650.051 269.345 648.632 269.899 647.17C270.456 647.286 275.014 648.212 277.138 647.732C279.064 647.297 281.397 646.207 282.261 644.302C283.105 642.438 282.35 640.138 280.326 639.458C277.519 638.514 273.234 641.703 271.664 643.831C271.571 643.957 270.719 645.431 270.196 646.37C270.419 645.771 270.643 645.192 270.865 644.573C271.314 643.351 271.725 642.12 272.171 640.796C272.365 640.149 272.559 639.496 272.757 638.836C272.967 638.185 273.105 637.472 273.285 636.785C273.666 635.182 273.976 633.539 274.25 631.878C275.319 632.268 279.14 633.597 281.12 633.458C283.09 633.319 285.561 632.595 286.701 630.843C287.819 629.128 287.42 626.74 285.524 625.761C282.891 624.404 278.173 626.907 276.299 628.773C276.182 628.889 274.988 630.379 274.348 631.209C274.505 630.209 274.666 629.211 274.793 628.194C275.158 625.257 275.434 622.273 275.724 619.299C275.813 618.387 275.912 617.48 276.008 616.572C276.388 616.715 280.894 618.394 283.111 618.238C285.082 618.099 287.553 617.375 288.693 615.623C289.81 613.908 289.412 611.52 287.515 610.543C284.884 609.186 280.165 611.687 278.291 613.553C278.15 613.694 276.433 615.84 276.024 616.407C276.236 614.405 276.465 612.414 276.77 610.46C277.188 607.763 277.747 605.14 278.477 602.639C278.654 602.705 283.35 604.478 285.621 604.32C287.591 604.181 290.062 603.457 291.204 601.705C292.321 599.99 291.923 597.602 290.027 596.625C287.394 595.267 282.677 597.77 280.802 599.635C280.655 599.781 278.81 602.09 278.506 602.534C278.55 602.385 278.579 602.226 278.625 602.079C279.438 599.419 280.56 596.944 281.723 594.679C282.396 593.36 283.115 592.139 283.839 590.965C284.681 591.385 288.544 593.261 290.603 593.344C292.576 593.422 295.112 592.975 296.439 591.359C297.738 589.777 297.604 587.36 295.827 586.179C293.359 584.542 288.394 586.511 286.327 588.158C286.215 588.248 285.172 589.286 284.424 590.052C284.758 589.527 285.096 588.979 285.426 588.483C286.664 586.618 287.913 584.985 289.033 583.549C289.675 582.738 290.271 582.017 290.838 581.348C291.877 581.33 296.069 581.203 297.9 580.342C299.687 579.502 301.732 577.936 302.165 575.89C302.588 573.888 301.355 571.804 299.235 571.576C296.291 571.258 292.791 575.293 291.715 577.711C291.623 577.919 290.543 581.352 290.599 581.351C290.599 581.351 290.65 581.351 290.661 581.349C290.103 581.982 289.514 582.666 288.884 583.428C287.731 584.843 286.443 586.452 285.159 588.298C283.871 590.139 282.524 592.176 281.298 594.449C280.066 596.727 278.886 599.185 277.999 601.876C277.989 601.907 277.982 601.94 277.973 601.97C277.988 601.102 277.951 598.675 277.926 598.49C277.586 595.867 275.388 591 272.475 590.461C270.377 590.074 268.6 591.717 268.433 593.757C268.263 595.841 269.773 597.926 271.247 599.242C272.908 600.726 277.519 602.164 277.887 602.277C277.065 604.846 276.43 607.551 275.938 610.322C275.655 611.907 275.42 613.511 275.205 615.123C275.194 614.372 275.178 613.701 275.166 613.608C274.826 610.985 272.629 606.118 269.715 605.58C267.617 605.192 265.84 606.836 265.673 608.876C265.502 610.96 267.012 613.046 268.485 614.361C269.981 615.696 273.888 617.001 274.925 617.331C274.849 617.95 274.766 618.568 274.692 619.187C274.337 622.158 273.995 625.127 273.571 628.026C273.423 629.049 273.238 630.05 273.057 631.052C273.046 630.385 273.032 629.824 273.021 629.739C272.681 627.116 270.482 622.248 267.572 621.709C265.474 621.322 263.697 622.966 263.529 625.005C263.358 627.088 264.87 629.175 266.343 630.49C267.769 631.765 271.364 633 272.597 633.4C272.381 634.421 272.166 635.444 271.911 636.423C271.722 637.088 271.585 637.74 271.358 638.398C271.147 639.053 270.937 639.703 270.73 640.346C270.285 641.569 269.833 642.833 269.37 644.015C269.053 644.84 268.735 645.619 268.419 646.406C268.579 645.39 268.851 643.396 268.854 643.226C268.894 641.469 268.271 638.614 267.029 636.606C267.036 636.346 267.022 636.088 266.98 635.831C266.656 633.809 264.757 632.308 262.695 632.858C259.833 633.619 258.018 638.643 257.883 641.284C257.874 641.44 257.977 643.14 258.058 644.211C257.913 643.588 257.782 642.982 257.626 642.344C257.326 641.078 256.988 639.825 256.632 638.473C256.437 637.828 256.238 637.174 256.039 636.515C255.855 635.857 255.577 635.185 255.348 634.514C254.781 632.966 254.133 631.425 253.445 629.888C254.553 629.623 258.473 628.623 260.047 627.416C261.614 626.213 263.275 624.245 263.261 622.156C263.246 620.109 261.597 618.337 259.476 618.568C256.532 618.887 253.977 623.578 253.442 626.168C253.409 626.329 253.235 628.231 253.159 629.277C252.739 628.357 252.323 627.435 251.867 626.517C250.551 623.867 249.137 621.226 247.737 618.585C247.308 617.776 246.89 616.965 246.469 616.155C246.864 616.064 251.549 614.978 253.312 613.625C254.879 612.422 256.541 610.456 256.527 608.365C256.512 606.318 254.863 604.546 252.742 604.777C249.798 605.096 247.243 609.787 246.708 612.377C246.668 612.571 246.42 615.308 246.391 616.007C245.464 614.223 244.557 612.435 243.734 610.637C242.595 608.157 241.614 605.66 240.843 603.173C241.028 603.131 245.921 602.019 247.728 600.632C249.295 599.43 250.957 597.463 250.942 595.372C250.928 593.326 249.278 591.554 247.157 591.785C244.213 592.104 241.658 596.795 241.123 599.384C241.08 599.588 240.818 602.533 240.807 603.069C240.761 602.921 240.697 602.773 240.653 602.624C239.864 599.957 239.434 597.274 239.155 594.741C238.991 593.27 238.915 591.855 238.872 590.477C239.805 590.364 244.063 589.797 245.825 588.729C247.515 587.705 249.383 585.933 249.597 583.854C249.808 581.818 248.362 579.875 246.23 579.871C243.268 579.865 240.214 584.246 239.398 586.761C239.354 586.898 239.057 588.338 238.855 589.391C238.846 588.769 238.823 588.127 238.826 587.531C238.83 585.292 238.971 583.241 239.112 581.425C239.201 580.393 239.3 579.463 239.404 578.594C240.261 578.004 243.685 575.586 244.74 573.859C245.768 572.171 246.608 569.738 245.841 567.793C245.089 565.889 242.911 564.832 241.017 565.812C238.385 567.171 237.694 572.467 238.128 575.076C238.167 575.302 239.161 578.759 239.205 578.729C239.205 578.729 239.246 578.7 239.256 578.693C239.14 579.528 239.027 580.425 238.922 581.407C238.74 583.223 238.554 585.276 238.501 587.524C238.443 589.77 238.442 592.213 238.674 594.785C238.904 597.364 239.275 600.066 240.019 602.798C240.027 602.828 240.04 602.86 240.049 602.891C239.584 602.158 238.211 600.156 238.09 600.013C236.359 598.013 231.84 595.167 229.115 596.323C227.151 597.158 226.576 599.509 227.561 601.303C228.566 603.138 230.976 604.043 232.931 604.329Z" fill="#A3A3A3"/>
<path d="M283.715 590.415C283.761 590.444 284.66 586.96 284.692 586.735C285.055 584.116 284.222 578.841 281.555 577.552C279.634 576.623 277.486 577.74 276.787 579.663C276.071 581.627 276.978 584.037 278.051 585.696C279.31 587.643 283.711 590.412 283.715 590.415Z" fill="#A3A3A3"/>
<path d="M590.893 585.435C593.139 586.416 598.63 586.291 598.635 586.291C598.692 586.29 597.455 582.697 597.35 582.478C596.145 579.958 592.335 575.795 589.235 576.215C587.002 576.516 585.759 578.753 586.264 580.856C586.778 583.004 588.981 584.598 590.893 585.435Z" fill="#A3A3A3"/>
<path d="M592.788 601.341C595.117 601.681 600.019 600.259 600.409 600.145C601.182 602.888 602.2 605.641 603.381 608.37C604.056 609.93 604.783 611.482 605.532 613.029C605.085 612.374 604.68 611.792 604.615 611.716C602.787 609.603 598.014 606.594 595.133 607.819C593.058 608.699 592.451 611.184 593.493 613.079C594.556 615.013 597.104 615.971 599.169 616.272C601.264 616.578 605.467 615.45 606.575 615.136C606.868 615.727 607.155 616.319 607.451 616.908C608.871 619.734 610.298 622.548 611.615 625.351C612.08 626.339 612.501 627.328 612.925 628.317C612.527 627.735 612.187 627.248 612.128 627.181C610.299 625.068 605.526 622.06 602.646 623.283C600.572 624.164 599.964 626.649 601.006 628.543C602.07 630.479 604.617 631.436 606.681 631.737C608.681 632.029 612.57 631.023 613.889 630.656C614.293 631.682 614.7 632.709 615.045 633.72C615.266 634.417 615.528 635.072 615.709 635.784C615.905 636.484 616.098 637.178 616.289 637.866C616.61 639.203 616.95 640.58 617.229 641.892C617.431 642.803 617.606 643.675 617.786 644.552C617.335 643.564 616.412 641.647 616.315 641.497C614.83 639.131 610.566 635.435 607.534 636.208C605.351 636.765 604.373 639.128 605.116 641.158C605.874 643.233 608.246 644.565 610.241 645.174C612.439 645.846 617.303 645.232 617.91 645.152C618.202 646.605 618.471 648.023 618.705 649.363C619.226 652.322 619.62 654.974 619.92 657.218H621.97C621.613 654.897 621.145 652.128 620.528 649.022C620.237 647.544 619.899 645.973 619.534 644.36C619.9 644.215 621.975 643.376 623.813 642.348C625.414 644.082 629.518 646.111 630.048 646.37C629.49 647.743 628.933 649.073 628.389 650.319C627.254 652.931 626.176 655.246 625.225 657.217H627.442C628.26 655.401 629.158 653.332 630.097 651.041C630.67 649.649 631.255 648.15 631.839 646.605C632.428 646.728 637.243 647.705 639.487 647.199C641.522 646.739 643.989 645.587 644.899 643.575C645.791 641.606 644.993 639.176 642.855 638.458C639.889 637.461 635.362 640.829 633.704 643.078C633.606 643.21 632.704 644.768 632.153 645.76C632.389 645.129 632.624 644.516 632.859 643.863C633.333 642.572 633.767 641.271 634.24 639.873C634.444 639.19 634.65 638.499 634.859 637.803C635.08 637.116 635.227 636.361 635.416 635.636C635.82 633.941 636.146 632.207 636.436 630.45C637.566 630.862 641.603 632.266 643.694 632.118C645.775 631.972 648.386 631.208 649.593 629.357C650.773 627.545 650.351 625.022 648.349 623.99C645.568 622.555 640.583 625.2 638.603 627.171C638.48 627.294 637.218 628.868 636.541 629.746C636.707 628.688 636.878 627.635 637.011 626.56C637.396 623.457 637.689 620.305 637.996 617.162C638.09 616.199 638.194 615.242 638.295 614.282C638.695 614.433 643.456 616.206 645.799 616.042C647.88 615.897 650.492 615.131 651.697 613.279C652.878 611.467 652.456 608.945 650.454 607.911C647.673 606.477 642.688 609.121 640.708 611.091C640.558 611.239 638.745 613.507 638.313 614.107C638.537 611.992 638.778 609.889 639.102 607.824C639.543 604.976 640.134 602.205 640.905 599.561C641.092 599.632 646.053 601.504 648.452 601.336C650.534 601.189 653.146 600.425 654.351 598.573C655.531 596.761 655.109 594.239 653.107 593.205C650.326 591.771 645.341 594.415 643.361 596.385C643.206 596.54 641.258 598.981 640.936 599.448C640.983 599.29 641.013 599.123 641.06 598.967C641.918 596.156 643.104 593.541 644.334 591.148C645.046 589.755 645.804 588.464 646.569 587.224C647.457 587.668 651.54 589.65 653.715 589.737C655.8 589.82 658.48 589.347 659.88 587.639C661.252 585.968 661.11 583.414 659.233 582.166C656.627 580.436 651.382 582.516 649.197 584.257C649.078 584.352 647.977 585.448 647.186 586.258C647.54 585.704 647.895 585.125 648.245 584.601C649.554 582.63 650.874 580.906 652.055 579.388C652.734 578.531 653.364 577.769 653.962 577.062C655.061 577.043 659.488 576.909 661.424 576C663.312 575.112 665.473 573.458 665.929 571.297C666.376 569.181 665.074 566.979 662.833 566.739C659.723 566.403 656.026 570.666 654.89 573.219C654.792 573.44 653.651 577.065 653.709 577.065C653.709 577.065 653.763 577.065 653.776 577.065C653.187 577.734 652.564 578.457 651.898 579.261C650.68 580.756 649.32 582.456 647.963 584.406C646.602 586.352 645.178 588.504 643.883 590.906C642.582 593.312 641.336 595.91 640.398 598.751C640.387 598.783 640.38 598.818 640.369 598.851C640.386 597.935 640.344 595.37 640.319 595.173C639.96 592.403 637.638 587.26 634.561 586.691C632.344 586.282 630.467 588.017 630.29 590.173C630.11 592.375 631.705 594.578 633.263 595.968C635.018 597.535 639.89 599.054 640.278 599.174C639.41 601.889 638.74 604.745 638.22 607.674C637.922 609.349 637.673 611.043 637.445 612.746C637.434 611.952 637.417 611.243 637.403 611.145C637.044 608.374 634.722 603.232 631.644 602.664C629.428 602.253 627.551 603.991 627.374 606.147C627.193 608.348 628.789 610.551 630.345 611.941C631.925 613.351 636.053 614.73 637.149 615.08C637.069 615.733 636.98 616.387 636.903 617.041C636.527 620.181 636.166 623.315 635.719 626.379C635.561 627.46 635.366 628.517 635.175 629.576C635.164 628.872 635.149 628.279 635.138 628.189C634.779 625.419 632.457 620.276 629.381 619.707C627.164 619.298 625.287 621.033 625.11 623.189C624.929 625.39 626.527 627.594 628.083 628.984C629.589 630.33 633.389 631.636 634.69 632.058C634.462 633.137 634.236 634.216 633.965 635.251C633.764 635.954 633.621 636.643 633.38 637.338C633.156 638.031 632.935 638.716 632.717 639.395C632.247 640.687 631.77 642.022 631.28 643.271C630.945 644.142 630.609 644.966 630.276 645.798C630.445 644.725 630.732 642.618 630.737 642.438C630.779 640.582 630.12 637.565 628.809 635.444C628.817 635.17 628.802 634.896 628.757 634.625C628.415 632.49 626.408 630.904 624.23 631.484C621.206 632.288 619.289 637.597 619.147 640.386C619.139 640.55 619.247 642.347 619.334 643.479C619.18 642.821 619.041 642.181 618.876 641.505C618.56 640.167 618.203 638.843 617.826 637.416C617.62 636.733 617.41 636.043 617.2 635.347C617.006 634.652 616.712 633.943 616.469 633.232C615.87 631.597 615.185 629.969 614.459 628.346C615.63 628.065 619.772 627.009 621.434 625.734C623.09 624.464 624.845 622.385 624.83 620.177C624.815 618.014 623.072 616.143 620.832 616.386C617.721 616.723 615.022 621.679 614.457 624.415C614.422 624.587 614.237 626.595 614.157 627.7C613.712 626.727 613.274 625.753 612.791 624.784C611.401 621.984 609.907 619.194 608.428 616.402C607.975 615.548 607.534 614.691 607.088 613.835C607.505 613.739 612.455 612.591 614.318 611.162C615.974 609.892 617.729 607.813 617.714 605.605C617.699 603.443 615.956 601.571 613.716 601.815C610.605 602.153 607.906 607.108 607.341 609.845C607.298 610.051 607.038 612.942 607.008 613.68C606.028 611.795 605.069 609.906 604.199 608.005C602.996 605.385 601.961 602.748 601.145 600.12C601.34 600.075 606.511 598.899 608.419 597.436C610.074 596.166 611.831 594.087 611.814 591.879C611.799 589.716 610.056 587.845 607.816 588.088C604.705 588.425 602.006 593.381 601.442 596.117C601.398 596.333 601.119 599.442 601.109 600.01C601.061 599.854 600.993 599.698 600.947 599.541C600.114 596.721 599.659 593.888 599.365 591.213C599.191 589.659 599.111 588.164 599.067 586.709C600.052 586.588 604.55 585.99 606.413 584.862C608.199 583.782 610.172 581.909 610.399 579.712C610.622 577.56 609.094 575.509 606.84 575.505C603.712 575.499 600.485 580.128 599.622 582.785C599.575 582.93 599.261 584.452 599.049 585.563C599.039 584.905 599.015 584.227 599.018 583.596C599.022 581.23 599.172 579.063 599.321 577.147C599.413 576.056 599.52 575.074 599.629 574.155C600.534 573.531 604.152 570.977 605.266 569.152C606.352 567.37 607.241 564.799 606.43 562.745C605.635 560.733 603.336 559.616 601.333 560.65C598.554 562.087 597.823 567.681 598.282 570.437C598.322 570.675 599.372 574.327 599.419 574.297C599.419 574.297 599.463 574.267 599.473 574.26C599.35 575.141 599.23 576.089 599.119 577.127C598.928 579.046 598.731 581.214 598.676 583.59C598.613 585.962 598.613 588.544 598.858 591.261C599.1 593.985 599.494 596.839 600.28 599.727C600.288 599.759 600.302 599.794 600.312 599.825C599.82 599.051 598.37 596.936 598.242 596.786C596.413 594.673 591.64 591.666 588.76 592.888C586.685 593.769 586.077 596.253 587.119 598.149C588.178 600.084 590.725 601.04 592.788 601.341Z" fill="#A3A3A3"/>
<path d="M646.442 586.642C646.49 586.673 647.441 582.993 647.474 582.753C647.859 579.987 646.976 574.413 644.16 573.052C642.131 572.071 639.862 573.251 639.122 575.284C638.367 577.36 639.324 579.905 640.459 581.658C641.788 583.714 646.437 586.64 646.442 586.642Z" fill="#A3A3A3"/>
<path d="M200.523 386.451H100.752V486.222H200.523V386.451Z" fill="#263238" stroke="#263238" stroke-miterlimit="10" stroke-linecap="round" stroke-linejoin="round"/>
<path d="M156.507 386.451H77.2773V486.222H156.507V386.451Z" fill="white" stroke="#263238" stroke-miterlimit="10" stroke-linecap="round" stroke-linejoin="round"/>
<path d="M263.8 486.138H92.7239V657.214H263.8V486.138Z" fill="#263238" stroke="#263238" stroke-miterlimit="10" stroke-linecap="round" stroke-linejoin="round"/>
<path d="M188.325 486.138H52.4704V657.214H188.325V486.138Z" fill="white" stroke="#263238" stroke-miterlimit="10" stroke-linecap="round" stroke-linejoin="round"/>
<path d="M417.462 213.191L360.171 165.254L286.287 205.636L343.575 255.662L417.462 213.191Z" fill="#3F72AF" stroke="#263238" stroke-miterlimit="10" stroke-linecap="round" stroke-linejoin="round"/>
<path d="M475.881 76.1358L429.664 102.89" stroke="#263238" stroke-miterlimit="10" stroke-linecap="round" stroke-linejoin="round"/>
<path d="M485.643 70.4848L480.921 73.2184" stroke="#263238" stroke-miterlimit="10" stroke-linecap="round" stroke-linejoin="round"/>
<path d="M402.161 109.318V40.6778L459.451 88.6152V157.255L402.161 109.318Z" fill="#3F72AF" stroke="#263238" stroke-miterlimit="10" stroke-linecap="round" stroke-linejoin="round"/>
<path d="M245.026 68.391L278.528 96.067" stroke="#263238" stroke-miterlimit="10" stroke-linecap="round" stroke-linejoin="round"/>
<path d="M237.433 62.1195L241.116 65.1613" stroke="#263238" stroke-miterlimit="10" stroke-linecap="round" stroke-linejoin="round"/>
<path d="M328.009 39.7836V108.425L254.125 148.807V80.1657L328.009 39.7836Z" fill="#3F72AF" stroke="#263238" stroke-miterlimit="10" stroke-linecap="round" stroke-linejoin="round"/>
<path d="M360.171 68.3731L286.287 108.755V177.395L343.575 227.421L417.462 184.95V116.309L360.171 68.3731Z" stroke="#263238" stroke-miterlimit="10" stroke-linecap="round" stroke-linejoin="round" stroke-dasharray="3 3"/>
<path d="M286.287 108.755L343.575 158.781L416.303 116.671" stroke="#263238" stroke-miterlimit="10" stroke-linecap="round" stroke-linejoin="round" stroke-dasharray="3 3"/>
<path d="M343.575 158.781V227.421" stroke="#263238" stroke-miterlimit="10" stroke-linecap="round" stroke-linejoin="round" stroke-dasharray="3 3"/>
<path d="M360.171 68.3731V137.013L404.659 173.796" stroke="#263238" stroke-miterlimit="10" stroke-linecap="round" stroke-linejoin="round" stroke-dasharray="3 3"/>
<path d="M360.171 137.013L296.23 171.614" stroke="#263238" stroke-miterlimit="10" stroke-linecap="round" stroke-linejoin="round" stroke-dasharray="3 3"/>
<path d="M251.445 133.769V202.41L308.733 252.436V183.795L251.445 133.769Z" fill="#3F72AF" stroke="#263238" stroke-miterlimit="10" stroke-linecap="round" stroke-linejoin="round"/>
<path d="M227.122 219.492L223.29 221.71" stroke="#263238" stroke-miterlimit="10" stroke-linecap="round" stroke-linejoin="round"/>
<path d="M271.882 193.582L231.155 217.158" stroke="#263238" stroke-miterlimit="10" stroke-linecap="round" stroke-linejoin="round"/>
<path d="M279.27 189.305L275.358 191.57" stroke="#263238" stroke-miterlimit="10" stroke-linecap="round" stroke-linejoin="round"/>
<path d="M375.173 261.198V192.558L449.06 150.087V218.728L375.173 261.198Z" fill="#3F72AF" stroke="#263238" stroke-miterlimit="10" stroke-linecap="round" stroke-linejoin="round"/>
<path d="M456.672 241.985L460.938 245.526" stroke="#263238" stroke-miterlimit="10" stroke-linecap="round" stroke-linejoin="round"/>
<path d="M414.324 206.848L453.792 239.596" stroke="#263238" stroke-miterlimit="10" stroke-linecap="round" stroke-linejoin="round"/>
<path d="M417.462 79.6806L360.171 31.7431L286.287 72.1252L343.575 122.151L417.462 79.6806Z" fill="#3F72AF" stroke="#263238" stroke-miterlimit="10" stroke-linecap="round" stroke-linejoin="round"/>
<path d="M350.893 23.0974V15.6622" stroke="#263238" stroke-miterlimit="10" stroke-linecap="round" stroke-linejoin="round"/>
<path d="M350.893 73.7325V28.3158" stroke="#263238" stroke-miterlimit="10" stroke-linecap="round" stroke-linejoin="round"/>
<path d="M304.609 632.373C304.609 632.373 297.337 644.06 295.26 645.878C293.183 647.695 287.988 651.591 285.911 653.669C283.832 655.747 286.431 658.345 288.768 658.605C291.104 658.864 319.413 658.605 319.413 658.605C319.413 658.605 322.53 658.085 322.79 656.527C323.049 654.968 324.348 650.295 322.53 646.139C320.711 641.983 320.711 637.309 320.711 637.309L321.231 636.01L320.711 632.894L304.609 632.373Z" fill="white" stroke="#263238" stroke-miterlimit="10" stroke-linecap="round" stroke-linejoin="round"/>
<path d="M288.768 658.603C291.104 658.863 319.413 658.603 319.413 658.603C319.413 658.603 322.53 658.084 322.79 656.526C322.955 655.527 323.546 653.244 323.471 650.64C319.185 651.912 314.844 653.669 314.844 653.669H285.911C283.832 655.747 286.431 658.343 288.768 658.603Z" fill="white" stroke="#263238" stroke-miterlimit="10" stroke-linecap="round" stroke-linejoin="round"/>
<path d="M316.182 651.02L314.176 658.042" stroke="#263238" stroke-miterlimit="10" stroke-linecap="round" stroke-linejoin="round"/>
<path d="M307.821 647.836C307.664 647.836 307.503 647.804 307.35 647.736C301.963 645.34 298.451 646.978 298.303 647.048C297.733 647.325 297.035 647.09 296.751 646.516C296.469 645.943 296.7 645.252 297.271 644.966C297.455 644.873 301.851 642.749 308.294 645.611C308.881 645.872 309.144 646.559 308.884 647.145C308.692 647.579 308.268 647.836 307.821 647.836Z" fill="white" stroke="#263238" stroke-miterlimit="10" stroke-linecap="round" stroke-linejoin="round"/>
<path d="M308.824 644.826C308.667 644.826 308.507 644.794 308.353 644.727C302.966 642.33 299.453 643.968 299.307 644.037C298.73 644.313 298.037 644.074 297.755 643.503C297.473 642.93 297.704 642.24 298.274 641.954C298.458 641.862 302.85 639.737 309.297 642.601C309.884 642.862 310.147 643.549 309.887 644.135C309.695 644.57 309.271 644.826 308.824 644.826Z" fill="white" stroke="#263238" stroke-miterlimit="10" stroke-linecap="round" stroke-linejoin="round"/>
<path d="M309.828 641.816C309.67 641.816 309.51 641.784 309.357 641.716C303.969 639.32 300.458 640.958 300.31 641.028C299.739 641.305 299.041 641.068 298.758 640.496C298.476 639.923 298.707 639.232 299.278 638.946C299.461 638.853 303.858 636.727 310.3 639.591C310.888 639.852 311.15 640.539 310.891 641.125C310.698 641.56 310.274 641.816 309.828 641.816Z" fill="white" stroke="#263238" stroke-miterlimit="10" stroke-linecap="round" stroke-linejoin="round"/>
<path d="M404.323 632.373C404.323 632.373 411.596 644.06 413.673 645.878C415.751 647.695 420.945 651.591 423.022 653.669C425.1 655.747 422.502 658.345 420.165 658.605C417.828 658.864 389.519 658.605 389.519 658.605C389.519 658.605 386.403 658.085 386.143 656.527C385.883 654.968 384.586 650.295 386.403 646.139C388.22 641.983 388.22 637.309 388.22 637.309L387.701 636.01L388.22 632.894L404.323 632.373Z" fill="white" stroke="#263238" stroke-miterlimit="10" stroke-linecap="round" stroke-linejoin="round"/>
<path d="M420.167 658.603C417.83 658.863 389.521 658.603 389.521 658.603C389.521 658.603 386.405 658.084 386.145 656.526C385.979 655.527 385.389 653.244 385.463 650.64C389.749 651.912 394.09 653.669 394.09 653.669H423.023C425.101 655.747 422.504 658.343 420.167 658.603Z" fill="white" stroke="#263238" stroke-miterlimit="10" stroke-linecap="round" stroke-linejoin="round"/>
<path d="M392.752 651.02L394.757 658.042" stroke="#263238" stroke-miterlimit="10" stroke-linecap="round" stroke-linejoin="round"/>
<path d="M401.112 647.836C401.269 647.836 401.43 647.804 401.583 647.736C406.97 645.34 410.482 646.978 410.63 647.048C411.2 647.325 411.898 647.09 412.181 646.516C412.463 645.943 412.233 645.252 411.662 644.966C411.478 644.873 407.082 642.749 400.639 645.611C400.052 645.872 399.789 646.559 400.049 647.145C400.241 647.579 400.665 647.836 401.112 647.836Z" fill="white" stroke="#263238" stroke-miterlimit="10" stroke-linecap="round" stroke-linejoin="round"/>
<path d="M400.108 644.826C400.266 644.826 400.426 644.794 400.58 644.727C405.967 642.33 409.48 643.968 409.626 644.037C410.203 644.313 410.896 644.074 411.178 643.503C411.46 642.93 411.229 642.24 410.659 641.954C410.475 641.862 406.083 639.737 399.636 642.601C399.048 642.862 398.786 643.549 399.046 644.135C399.238 644.57 399.662 644.826 400.108 644.826Z" fill="white" stroke="#263238" stroke-miterlimit="10" stroke-linecap="round" stroke-linejoin="round"/>
<path d="M399.105 641.816C399.263 641.816 399.423 641.784 399.576 641.716C404.963 639.32 408.475 640.958 408.623 641.028C409.194 641.305 409.892 641.068 410.175 640.496C410.457 639.923 410.226 639.232 409.655 638.946C409.471 638.853 405.075 636.727 398.632 639.591C398.045 639.852 397.783 640.539 398.042 641.125C398.234 641.56 398.659 641.816 399.105 641.816Z" fill="white" stroke="#263238" stroke-miterlimit="10" stroke-linecap="round" stroke-linejoin="round"/>
<path d="M409.307 624.939C408.638 622.932 404.626 615.91 404.626 615.91C404.626 615.91 405.629 611.564 405.629 607.551C405.629 603.539 401.113 583.811 401.113 583.811L400.895 584.072C400.151 576.464 399.191 570.112 398.981 569.272C398.628 567.861 389.099 469.4 389.099 469.4L385.924 444.345L354.502 445.886L323.081 444.345L319.905 469.4C319.905 469.4 310.377 567.861 310.024 569.272C309.768 570.295 308.402 579.47 307.668 589.144C306.583 594.927 304.817 604.77 304.817 607.551C304.817 611.109 305.604 614.925 305.783 615.743C305.766 615.848 305.75 615.957 305.733 616.062C305.171 617.052 301.751 623.097 301.138 624.938C300.469 626.944 302.058 636.385 302.058 636.385C302.058 636.385 302.112 636.387 302.192 636.392L302.141 636.639L307.993 636.849C309.286 636.973 310.704 637.125 312.172 637.308C317.521 637.977 321.533 639.983 321.533 639.983L328.221 627.946L325.88 622.597L328.555 606.882L328.326 606.629L343.901 543.863L354.501 494.835L365.101 543.863L382.934 613.021L384.564 622.597L382.223 627.946L388.91 639.983C388.91 639.983 392.922 637.977 398.272 637.308C403.621 636.639 408.385 636.383 408.385 636.383C408.385 636.383 409.976 626.946 409.307 624.939Z" fill="#263238" stroke="#263238" stroke-miterlimit="10" stroke-linecap="round" stroke-linejoin="round"/>
<path d="M374.738 448.558H332.682V453.098H374.738V448.558Z" fill="#575757" stroke="#263238" stroke-miterlimit="10" stroke-linecap="round" stroke-linejoin="round"/>
<path d="M386.685 448.558H378.56V453.098H386.685V448.558Z" fill="#575757" stroke="#263238" stroke-miterlimit="10" stroke-linecap="round" stroke-linejoin="round"/>
<path d="M328.858 448.558H322.407V453.098H328.858V448.558Z" fill="#575757" stroke="#263238" stroke-miterlimit="10" stroke-linecap="round" stroke-linejoin="round"/>
<path d="M359.444 449.037H348.93V452.859H359.444V449.037Z" fill="white" stroke="#263238" stroke-miterlimit="10" stroke-linecap="round" stroke-linejoin="round"/>
<path d="M307.825 364.974C307.825 364.974 288.455 432.35 287.612 434.035C286.771 435.72 291.823 434.877 296.595 435.72C301.367 436.561 308.106 432.913 308.947 431.509C309.789 430.105 316.808 408.208 316.808 408.208L307.825 364.974Z" fill="white" stroke="#263238" stroke-miterlimit="10" stroke-linecap="round" stroke-linejoin="round"/>
<path d="M308.704 386.813L307.899 384.862" stroke="#263238" stroke-miterlimit="10" stroke-linecap="round" stroke-linejoin="round"/>
<path d="M315.056 402.181L309.633 389.059" stroke="#263238" stroke-miterlimit="10" stroke-linecap="round" stroke-linejoin="round"/>
<path d="M308.248 422.649C309.169 423.301 309.786 423.75 309.786 423.75L308.248 422.649Z" fill="white"/>
<path d="M308.248 422.649C309.169 423.301 309.786 423.75 309.786 423.75" stroke="#263238" stroke-miterlimit="10" stroke-linecap="round" stroke-linejoin="round"/>
<path d="M293.928 419.597C293.928 419.597 299.214 417.709 300.346 417.709C300.997 417.709 304.011 419.701 306.461 421.397" fill="white"/>
<path d="M293.928 419.597C293.928 419.597 299.214 417.709 300.346 417.709C300.997 417.709 304.011 419.701 306.461 421.397" stroke="#263238" stroke-miterlimit="10" stroke-linecap="round" stroke-linejoin="round"/>
<path d="M397.659 361.045C397.659 361.045 419.838 420.28 420.399 422.526C420.96 424.771 421.522 426.176 421.24 428.702C420.96 431.228 417.03 432.913 416.187 432.913C415.345 432.913 409.169 428.982 406.641 427.86C404.115 426.737 396.534 423.088 396.534 423.088L392.607 410.454L397.659 361.045Z" fill="white" stroke="#263238" stroke-miterlimit="10" stroke-linecap="round" stroke-linejoin="round"/>
<path d="M398.899 380.268L399.267 378.821" stroke="#263238" stroke-miterlimit="10" stroke-linecap="round" stroke-linejoin="round"/>
<path d="M393.603 401.098L398.301 382.623" stroke="#263238" stroke-miterlimit="10" stroke-linecap="round" stroke-linejoin="round"/>
<path d="M407.197 411.669L398.135 417.332" stroke="#263238" stroke-miterlimit="10" stroke-linecap="round" stroke-linejoin="round"/>
<path d="M339.548 348.13L307.825 364.974L321.582 437.964C321.582 437.964 320.458 444.701 321.301 446.105C322.143 447.51 323.547 448.351 323.547 448.351H385.589C385.589 448.351 389.8 444.421 389.8 443.579C389.8 442.738 389.8 439.929 389.8 439.929L397.661 361.043L366.244 348.521L339.548 348.13Z" fill="white" stroke="#263238" stroke-miterlimit="10" stroke-linecap="round" stroke-linejoin="round"/>
<path d="M346.658 351.461L350.819 363.212L345.189 434.698L354.002 448.653L361.592 433.474L353.758 363.212L358.654 352.684L351.555 344.849L346.658 351.461Z" fill="#263238" stroke="#263238" stroke-miterlimit="10" stroke-linecap="round" stroke-linejoin="round"/>
<path d="M339.068 341.912L338.334 349.747L344.944 360.518L349.841 348.767L339.068 341.912Z" fill="white" stroke="#263238" stroke-miterlimit="10" stroke-linecap="round" stroke-linejoin="round"/>
<path d="M354.247 349.012L358.165 361.498L366.244 348.522L362.57 340.932L354.247 349.012Z" fill="white" stroke="#263238" stroke-miterlimit="10" stroke-linecap="round" stroke-linejoin="round"/>
<path d="M374.359 431.789L373.235 423.087L380.816 424.49L374.359 431.789Z" fill="white" stroke="#263238" stroke-miterlimit="10" stroke-linecap="round" stroke-linejoin="round"/>
<path d="M353.585 405.4C353.585 405.4 349.093 404.839 346.567 403.996C344.041 403.154 342.356 404.276 344.321 406.803C346.286 409.329 353.304 410.453 354.147 410.453C354.147 410.453 355.551 417.751 359.482 419.155C363.412 420.559 365.658 420.559 365.658 420.559C365.658 420.559 367.623 423.366 370.149 423.648C372.676 423.928 378.571 428.139 378.571 428.139L381.378 421.683L375.202 416.63L369.026 405.962L363.13 403.997L358.078 402.313L353.585 405.4Z" fill="white" stroke="#263238" stroke-miterlimit="10" stroke-linecap="round" stroke-linejoin="round"/>
<path d="M369.305 412.98L366.779 415.507C366.779 415.507 367.059 416.63 367.059 417.752C367.059 418.876 365.094 418.876 363.69 418.876C362.286 418.876 360.603 418.595 359.479 417.752C358.355 416.911 353.864 412.98 353.864 412.98L358.636 404.558L354.425 407.365C354.425 407.365 352.46 411.015 350.775 412.7C349.091 414.384 348.529 412.419 348.529 412.419C348.529 412.419 350.214 407.085 351.336 405.682C352.46 404.278 356.39 400.91 356.39 400.91C356.39 400.91 357.794 400.629 359.76 400.91C361.725 401.19 365.655 403.436 367.34 404.56C369.024 405.683 370.427 407.929 370.709 409.051C370.99 410.175 370.99 411.016 370.99 411.016" fill="white"/>
<path d="M369.305 412.98L366.779 415.507C366.779 415.507 367.059 416.63 367.059 417.752C367.059 418.876 365.094 418.876 363.69 418.876C362.286 418.876 360.603 418.595 359.479 417.752C358.355 416.911 353.864 412.98 353.864 412.98L358.636 404.558L354.425 407.365C354.425 407.365 352.46 411.015 350.775 412.7C349.091 414.384 348.529 412.419 348.529 412.419C348.529 412.419 350.214 407.085 351.336 405.682C352.46 404.278 356.39 400.91 356.39 400.91C356.39 400.91 357.794 400.629 359.76 400.91C361.725 401.19 365.655 403.436 367.34 404.56C369.024 405.683 370.427 407.929 370.709 409.051C370.99 410.175 370.99 411.016 370.99 411.016" stroke="#263238" stroke-miterlimit="10" stroke-linecap="round" stroke-linejoin="round"/>
<path d="M362.007 418.595C362.007 418.595 361.165 416.63 361.726 415.226C362.287 413.822 365.937 408.489 365.937 408.489" stroke="#263238" stroke-miterlimit="10" stroke-linecap="round" stroke-linejoin="round"/>
<path d="M359.48 417.752C359.48 417.752 359.03 417.245 358.532 416.535C357.919 415.659 358.438 414.56 358.438 413.63C358.438 411.945 362.568 405.12 362.568 405.12" stroke="#263238" stroke-miterlimit="10" stroke-linecap="round" stroke-linejoin="round"/>
<path d="M414.784 416.348C414.784 416.348 421.802 427.016 421.521 429.823C421.24 432.63 419.556 438.806 417.03 438.806C414.503 438.806 403.273 437.402 395.412 435.999C387.551 434.595 382.218 434.034 382.218 434.034L374.358 431.788L379.692 418.874L384.8 419.943C384.8 419.943 388.564 418.988 392.214 418.707C395.864 418.427 408.045 415.507 408.045 415.507" fill="white"/>
<path d="M414.784 416.348C414.784 416.348 421.802 427.016 421.521 429.823C421.24 432.63 419.556 438.806 417.03 438.806C414.503 438.806 403.273 437.402 395.412 435.999C387.551 434.595 382.218 434.034 382.218 434.034L374.358 431.788L379.692 418.874L384.8 419.943C384.8 419.943 388.564 418.988 392.214 418.707C395.864 418.427 408.045 415.507 408.045 415.507" stroke="#263238" stroke-miterlimit="10" stroke-linecap="round" stroke-linejoin="round"/>
<path d="M384.84 421.214C384.84 421.214 385.215 426.08 382.594 430.197" stroke="#263238" stroke-miterlimit="10" stroke-linecap="round" stroke-linejoin="round"/>
<path d="M291.262 425.052C291.262 425.052 286.49 436.563 286.209 437.404C285.929 438.246 287.051 443.581 291.544 442.457C296.035 441.333 319.898 438.807 322.986 438.246C326.073 437.685 330.847 436.842 330.847 436.842C330.847 436.842 334.216 436.842 337.023 436.842C339.83 436.842 347.69 436.842 349.375 436.281C351.06 435.72 354.429 434.596 356.112 434.035C357.797 433.474 361.447 431.228 361.727 430.385C362.008 429.544 360.886 428.701 358.078 428.981C355.271 429.262 346.567 429.542 346.567 429.542C346.567 429.542 354.428 426.453 356.954 425.331C359.48 424.208 358.639 423.085 358.639 423.085C358.639 423.085 355.83 423.085 353.867 423.927C351.901 424.769 332.531 427.296 332.531 427.296L330.286 425.331C330.286 425.331 331.409 422.524 331.409 420.279C331.409 418.033 330.286 416.348 328.883 416.909C327.479 417.47 326.918 420.84 326.637 421.962C326.357 423.085 324.952 427.577 324.952 427.577L324.391 430.103C324.391 430.103 312.881 427.857 309.513 426.453C306.143 425.049 299.126 423.084 298.002 423.366C296.878 423.647 294.633 426.735 294.072 428.138" fill="white"/>
<path d="M291.262 425.052C291.262 425.052 286.49 436.563 286.209 437.404C285.929 438.246 287.051 443.581 291.544 442.457C296.035 441.333 319.898 438.807 322.986 438.246C326.073 437.685 330.847 436.842 330.847 436.842C330.847 436.842 334.216 436.842 337.023 436.842C339.83 436.842 347.69 436.842 349.375 436.281C351.06 435.72 354.429 434.596 356.112 434.035C357.797 433.474 361.447 431.228 361.727 430.385C362.008 429.544 360.886 428.701 358.078 428.981C355.271 429.262 346.567 429.542 346.567 429.542C346.567 429.542 354.428 426.453 356.954 425.331C359.48 424.208 358.639 423.085 358.639 423.085C358.639 423.085 355.83 423.085 353.867 423.927C351.901 424.769 332.531 427.296 332.531 427.296L330.286 425.331C330.286 425.331 331.409 422.524 331.409 420.279C331.409 418.033 330.286 416.348 328.883 416.909C327.479 417.47 326.918 420.84 326.637 421.962C326.357 423.085 324.952 427.577 324.952 427.577L324.391 430.103C324.391 430.103 312.881 427.857 309.513 426.453C306.143 425.049 299.126 423.084 298.002 423.366C296.878 423.647 294.633 426.735 294.072 428.138" stroke="#263238" stroke-miterlimit="10" stroke-linecap="round" stroke-linejoin="round"/>
<path d="M316.34 429.075C316.34 429.075 314.469 433.192 316.714 435.812" stroke="#263238" stroke-miterlimit="10" stroke-linecap="round" stroke-linejoin="round"/>
<path d="M320.35 414.285L328.887 431.652C329.201 432.291 329.849 432.699 330.561 432.707L361.719 433.025C363.05 433.039 363.976 431.706 363.499 430.464L356.719 412.779C356.44 412.049 355.739 411.568 354.958 411.568H322.042C320.646 411.568 319.734 413.033 320.35 414.285Z" fill="#112D4E" stroke="#263238" stroke-miterlimit="10" stroke-linecap="round" stroke-linejoin="round"/>
<path d="M358.076 428.982C355.269 429.263 346.565 429.544 346.565 429.544C346.565 429.544 354.426 426.455 356.953 425.333C359.479 424.209 358.637 423.087 358.637 423.087C358.637 423.087 355.829 423.087 353.865 423.928C351.9 424.77 332.53 427.298 332.53 427.298L330.284 425.333C330.284 425.333 331.408 422.526 331.408 420.28C331.408 418.034 330.284 416.35 328.881 416.911C327.477 417.472 326.916 420.841 326.636 421.963C326.355 423.087 324.951 427.578 324.951 427.578L324.39 430.105C324.39 430.105 323.176 429.867 321.425 429.501C320.994 431.021 320.794 433.072 321.583 435.439C321.963 436.582 322.329 437.514 322.684 438.297C322.798 438.279 322.903 438.263 322.986 438.247C326.073 437.686 330.847 436.843 330.847 436.843C330.847 436.843 334.216 436.843 337.023 436.843C339.83 436.843 347.69 436.843 349.375 436.282C351.06 435.721 354.429 434.598 356.112 434.036C357.797 433.475 361.447 431.23 361.727 430.387C362.007 429.544 360.883 428.701 358.076 428.982Z" fill="white" stroke="#263238" stroke-miterlimit="10" stroke-linecap="round" stroke-linejoin="round"/>
<path d="M360.656 430.825C360.656 430.825 354.833 433.598 354.001 433.598C353.169 433.598 343.185 434.708 343.185 434.708" stroke="#263238" stroke-miterlimit="10" stroke-linecap="round" stroke-linejoin="round"/>
<path d="M302.138 636.642C302.138 636.642 302.219 636.306 302.408 635.84C302.293 636.018 302.176 636.2 302.055 636.386L302.138 636.642Z" fill="white" stroke="#263238" stroke-miterlimit="10" stroke-linecap="round" stroke-linejoin="round"/>
<path d="M334.749 316.146C334.749 316.146 333.28 310.023 331.075 313.942C328.87 317.861 331.319 323.985 332.299 324.965C333.279 325.945 335.239 322.761 335.239 322.761" fill="white"/>
<path d="M334.749 316.146C334.749 316.146 333.28 310.023 331.075 313.942C328.87 317.861 331.319 323.985 332.299 324.965C333.279 325.945 335.239 322.761 335.239 322.761" stroke="#263238" stroke-miterlimit="10" stroke-linecap="round" stroke-linejoin="round"/>
<path d="M368.885 316.146C368.885 316.146 370.355 310.023 372.559 313.942C374.764 317.861 372.315 323.985 371.335 324.965C370.355 325.945 368.396 322.761 368.396 322.761" fill="white"/>
<path d="M368.885 316.146C368.885 316.146 370.355 310.023 372.559 313.942C374.764 317.861 372.315 323.985 371.335 324.965C370.355 325.945 368.396 322.761 368.396 322.761" stroke="#263238" stroke-miterlimit="10" stroke-linecap="round" stroke-linejoin="round"/>
<path d="M360.265 293.517C351.878 289.536 338.812 292.807 335.895 302.51C333.725 309.727 334.056 319.236 334.056 327.334C334.056 331.348 339.275 336.568 339.275 336.568L339.676 344.197L352.124 351.825L362.563 344.599L362.964 337.371C362.964 337.371 368.586 332.553 369.389 328.939C370.192 325.326 368.691 304.804 367.246 300.83C366.342 298.346 364.31 295.437 360.265 293.517Z" fill="white" stroke="#263238" stroke-miterlimit="10" stroke-linecap="round" stroke-linejoin="round"/>
<path d="M347.978 303.37C347.978 303.37 343.814 300.186 339.159 304.594L347.978 303.37Z" fill="white"/>
<path d="M347.978 303.37C347.978 303.37 343.814 300.186 339.159 304.594" stroke="#263238" stroke-width="2" stroke-miterlimit="10" stroke-linecap="round" stroke-linejoin="round"/>
<path d="M356.061 303.704C356.061 303.704 360.225 300.275 364.88 303.949L356.061 303.704Z" fill="white"/>
<path d="M356.061 303.704C356.061 303.704 360.225 300.275 364.88 303.949" stroke="#263238" stroke-width="2" stroke-miterlimit="10" stroke-linecap="round" stroke-linejoin="round"/>
<path d="M354.346 313.696C354.346 313.696 354.102 316.636 351.162 317.371L354.346 313.696Z" fill="white"/>
<path d="M354.346 313.696C354.346 313.696 354.102 316.636 351.162 317.371" stroke="#263238" stroke-miterlimit="10" stroke-linecap="round" stroke-linejoin="round"/>
<path d="M345.772 320.555C345.772 320.555 350.181 322.27 357.775 320.555H345.772Z" fill="white"/>
<path d="M345.772 320.555C345.772 320.555 350.181 322.27 357.775 320.555" stroke="#263238" stroke-miterlimit="10" stroke-linecap="round" stroke-linejoin="round"/>
<path d="M356.349 337.407C355.077 337.849 353.663 338.316 352.386 338.681C348.956 339.661 342.099 336.477 342.099 336.477" fill="white"/>
<path d="M356.349 337.407C355.077 337.849 353.663 338.316 352.386 338.681C348.956 339.661 342.099 336.477 342.099 336.477" stroke="#263238" stroke-miterlimit="10" stroke-linecap="round" stroke-linejoin="round"/>
<path d="M360.225 335.986C360.225 335.986 359.541 336.252 358.503 336.634L360.225 335.986Z" fill="white"/>
<path d="M360.225 335.986C360.225 335.986 359.541 336.252 358.503 336.634" stroke="#263238" stroke-miterlimit="10" stroke-linecap="round" stroke-linejoin="round"/>
<path d="M361.096 307.261C361.096 308.024 360.645 308.643 360.09 308.643C359.534 308.643 359.085 308.024 359.085 307.261C359.085 306.499 359.536 305.879 360.09 305.879C360.645 305.879 361.096 306.499 361.096 307.261Z" fill="#263238"/>
<path d="M344.132 308.643C344.687 308.643 345.136 308.025 345.136 307.261C345.136 306.498 344.687 305.879 344.132 305.879C343.577 305.879 343.127 306.498 343.127 307.261C343.127 308.025 343.577 308.643 344.132 308.643Z" fill="#263238"/>
<path d="M355.441 305.126C355.441 305.126 354.436 307.263 354.31 308.896C354.184 310.53 354.562 311.409 354.562 311.409" stroke="#263238" stroke-miterlimit="10" stroke-linecap="round" stroke-linejoin="round"/>
<path d="M343.521 293.79C343.521 293.79 342.515 290.604 347.042 288.088C351.57 285.572 352.912 286.075 357.775 284.23C362.638 282.385 363.644 283.56 363.141 285.572C362.638 287.585 360.626 289.429 360.626 289.429C360.626 289.429 364.314 286.244 365.656 286.914C366.998 287.585 365.824 292.448 365.489 293.119C365.153 293.79 368.507 292.616 370.184 296.641C371.86 300.665 369.345 314.416 369.345 314.416C369.345 314.416 368.003 309.05 367.669 307.038C367.333 305.025 366.13 297.791 363.141 296.641C358.781 294.963 354.086 294.293 350.229 294.629C346.372 294.963 343.521 293.79 343.521 293.79Z" fill="#263238"/>
<path d="M343.521 292.615C343.521 292.615 339.664 290.939 336.981 293.285C334.299 295.633 336.311 296.639 335.975 297.645C335.639 298.652 333.796 297.813 332.287 302.509C330.777 307.203 334.299 311.396 334.299 311.396L334.802 313.409C334.802 313.409 335.808 307.539 335.808 306.199C335.808 304.857 338.323 303.348 338.826 301.671C339.329 299.995 340.335 295.802 344.193 294.126C344.193 294.126 344.36 292.951 343.521 292.615Z" fill="#263238"/>
<path d="M662.669 657.216H670.27" stroke="#263238" stroke-miterlimit="10"/>
<path d="M28.8713 657.216H657.141" stroke="#263238" stroke-miterlimit="10"/>
<path d="M133.361 118.37L112.84 138.891L133.361 159.412L153.883 138.891L133.361 118.37Z" stroke="#263238" stroke-miterlimit="10" stroke-linecap="round" stroke-linejoin="round"/>
<path d="M201.078 303.349L189.435 314.992L201.078 326.634L212.72 314.992L201.078 303.349Z" stroke="#263238" stroke-miterlimit="10" stroke-linecap="round" stroke-linejoin="round"/>
<path d="M624.295 203.687L612.652 215.33L624.295 226.972L635.937 215.33L624.295 203.687Z" stroke="#263238" stroke-miterlimit="10" stroke-linecap="round" stroke-linejoin="round"/>
<path d="M546.68 260.406L539.079 268.006L546.68 275.607L554.28 268.006L546.68 260.406Z" stroke="#263238" stroke-miterlimit="10" stroke-linecap="round" stroke-linejoin="round"/>
<path d="M74.1662 197.694L66.5654 205.295L74.1662 212.896L81.7669 205.295L74.1662 197.694Z" stroke="#263238" stroke-miterlimit="10" stroke-linecap="round" stroke-linejoin="round"/>
<path d="M581.643 55.7003L574.042 63.3011L581.643 70.9019L589.244 63.3011L581.643 55.7003Z" stroke="#263238" stroke-miterlimit="10" stroke-linecap="round" stroke-linejoin="round"/>
</svg>
